<svg width="38" height="38" viewBox="0 0 38 38" fill="none" xmlns="http://www.w3.org/2000/svg">
<path d="M27.6926 32.4537L27.0921 33.8053C27.0102 33.9892 26.8463 34.1237 26.6501 34.1684C26.4536 34.213 26.2478 34.1624 26.0946 34.0321L24.9705 33.0752L24.7687 33.2468L26.6628 37.8757L27.1854 36.8046C27.4079 36.3529 27.9278 36.1321 28.4074 36.2853L29.6324 36.682L27.9151 32.512L27.6926 32.4537Z" fill="white"/>
<path d="M29.9931 27.5274L30.9597 26.8016L29.9938 26.0782C29.7423 25.8914 29.6644 25.5493 29.8099 25.2722L30.3652 24.2037L29.1835 23.9733C28.876 23.9146 28.6572 23.6412 28.6672 23.3285L28.7048 22.1201L27.5385 22.4255C27.236 22.5058 26.9203 22.3542 26.7937 22.0681L26.3028 20.963L25.3839 21.7451C25.1454 21.9496 24.7933 21.9492 24.5555 21.7441L23.6376 20.963L23.147 22.0675C23.0208 22.3539 22.7047 22.5058 22.4019 22.4255L21.2352 22.1198L21.2729 23.3268C21.2838 23.6402 21.0647 23.915 20.7563 23.9733L19.5749 24.2034L20.1304 25.2725C20.2753 25.55 20.1971 25.8914 19.9459 26.0782L18.9807 26.8016L19.9473 27.5274C20.1981 27.7146 20.2753 28.0563 20.1298 28.3331L19.5749 29.4015L20.7569 29.6317C21.065 29.6906 21.2842 29.9657 21.2729 30.2792L21.2352 31.4852L22.4016 31.1794C22.4552 31.1654 22.5102 31.1584 22.5651 31.1584C22.8176 31.1584 23.0458 31.3077 23.1473 31.5385L23.6373 32.6419L24.5562 31.8599C24.794 31.6564 25.1447 31.656 25.3829 31.8592L26.3025 32.6419L26.7931 31.5381C26.9196 31.2517 27.236 31.0998 27.5388 31.1798L28.7048 31.4852L28.6669 30.2785C28.6565 29.9657 28.875 29.6916 29.1825 29.632L30.3652 29.4019L29.8096 28.3324C29.6644 28.0556 29.7423 27.7142 29.9931 27.5274ZM24.9702 30.6046C22.8706 30.6046 21.1683 28.9023 21.1683 26.8026C21.1683 24.703 22.8706 23.0007 24.9702 23.0007C27.0698 23.0007 28.7721 24.703 28.7721 26.8026C28.7698 28.9013 27.0688 30.6019 24.9702 30.6046Z" fill="white"/>
<path d="M24.9702 24.1944C23.5297 24.1944 22.3619 25.3621 22.3619 26.8026C22.3619 28.2431 23.5297 29.4108 24.9702 29.4108C26.4107 29.4108 27.5784 28.2431 27.5784 26.8026C27.5767 25.3628 26.41 24.1961 24.9702 24.1944Z" fill="white"/>
<path d="M18.1733 24.0712C18.0811 23.898 18.0781 23.6912 18.1653 23.5153C18.2536 23.3354 18.4215 23.2075 18.6183 23.1702L20.0651 22.8905L20.0192 21.4137C20.0129 21.2125 20.1021 21.02 20.26 20.8948C20.4175 20.7695 20.625 20.7259 20.8199 20.7772L22.2477 21.1512L22.8482 19.8C22.9298 19.6161 23.0937 19.4812 23.2899 19.4366C23.486 19.392 23.6915 19.4423 23.8451 19.5725L24.9705 20.5297L26.0953 19.5728C26.2485 19.4423 26.4546 19.3916 26.6511 19.4366C26.8477 19.4812 27.0112 19.6165 27.0928 19.8006L27.693 21.1512L29.1218 20.7772C29.3163 20.7259 29.5238 20.7695 29.681 20.8948C29.8386 21.02 29.9278 21.2122 29.9218 21.4133L29.8755 22.8908L31.3227 23.1712C31.5199 23.2092 31.6877 23.3374 31.7757 23.518C31.8629 23.6928 31.8596 23.8993 31.7673 24.0715L31.414 24.7266H36.4652V0H1.50684V24.7266H18.5264L18.1733 24.0712ZM4.74688 6.48009H19.4976C19.8273 6.48009 20.0945 6.7472 20.0945 7.07694C20.0945 7.40667 19.8273 7.67379 19.4976 7.67379H4.74688C4.41715 7.67379 4.15003 7.40667 4.15003 7.07694C4.15003 6.7472 4.41715 6.48009 4.74688 6.48009ZM4.74688 10.0612H33.1399C33.4696 10.0612 33.7367 10.3283 33.7367 10.658C33.7367 10.9878 33.4696 11.2549 33.1399 11.2549H4.74688C4.41715 11.2549 4.15003 10.9878 4.15003 10.658C4.15003 10.3283 4.41715 10.0612 4.74688 10.0612ZM4.74688 13.7276H33.1399C33.4696 13.7276 33.7367 13.9947 33.7367 14.3244C33.7367 14.6541 33.4696 14.9213 33.1399 14.9213H4.74688C4.41715 14.9213 4.15003 14.6541 4.15003 14.3244C4.15003 13.9947 4.41715 13.7276 4.74688 13.7276ZM4.15003 17.9055C4.15003 17.5758 4.41715 17.3087 4.74688 17.3087H33.1399C33.4696 17.3087 33.7367 17.5758 33.7367 17.9055C33.7367 18.2352 33.4696 18.5024 33.1399 18.5024H4.74688C4.41715 18.5024 4.15003 18.2352 4.15003 17.9055Z" fill="white"/>
<path d="M22.7553 36.9294L23.2772 37.9999L24.3497 35.3737L23.8111 34.0581C23.6559 34.1737 23.4564 34.2123 23.2692 34.1634C23.082 34.1144 22.9272 33.9828 22.8486 33.806L22.2477 32.4534L22.0832 32.4967L20.3076 36.8069L21.5326 36.4099C22.0126 36.2567 22.5325 36.4775 22.7553 36.9294Z" fill="white"/>
</svg>
