<svg width="135" height="154" viewBox="0 0 135 154" fill="none" xmlns="http://www.w3.org/2000/svg">
<path d="M3.9707 1.5H2.4707V3V93.0702V94.5702H3.9707H15.7913H17.2913V93.0702V49.8097L31.0637 93.5209L31.3943 94.5702H32.4944H44.3151H45.4151L45.7457 93.5209L59.5181 49.8097V93.0702V94.5702H61.0181H72.8388H74.3388V93.0702V3V1.5H72.8388H60.8896H59.7899L59.4591 2.54877L38.4047 69.2977L17.3503 2.54877L17.0195 1.5H15.9198H3.9707ZM89.1852 65.9205V67.4205H90.6852H117.709V79.7324H90.6852H89.1852V81.2324V93.0702V94.5702H90.6852H131.03H132.53V93.0702V54.0827V52.5827H131.03H104.006V16.3378H117.709V36.5833V38.0833H119.209H131.03H132.53V36.5833V3V1.5H131.03H90.6852H89.1852V3V65.9205Z" fill="#FE1919" stroke="white" stroke-width="3"/>
<path d="M0 153.936H5.9471V140.38H20.2977V108.965H0V153.936ZM14.3506 114.875V134.47H5.9471V114.875H14.3506Z" fill="white"/>
<path d="M28.9123 153.936H34.8594V140.38H39.3197L44.685 154H50.6321L45.2668 140.38H49.21V108.965H28.9123V153.936ZM34.8594 134.47V114.875H43.2629V134.47H34.8594Z" fill="white"/>
<path d="M57.0671 108.965V153.936H77.3648V108.965H57.0671ZM63.0142 148.025V114.875H71.4177V148.025H63.0142Z" fill="white"/>
<path d="M91.6108 153.936V140.38H105.961V134.47H91.6108V114.875H105.961V108.965H85.6637V153.936H91.6108Z" fill="white"/>
<path d="M120.649 153.936V140.38H135V134.47H120.649V114.875H135V108.965H114.702V153.936H120.649Z" fill="white"/>
</svg>
