<svg width="38" height="38" viewBox="0 0 38 38" fill="none" xmlns="http://www.w3.org/2000/svg">
<g clip-path="url(#clip0)">
<path d="M1.11328 38H21.3008C21.9157 38 22.4141 37.5016 22.4141 36.8867V35.6992C22.4141 34.4694 21.4173 33.4727 20.1875 33.4727V32.1416C20.1875 30.3792 18.7536 28.9453 16.9912 28.9453H5.4229C3.66049 28.9453 2.22656 30.3792 2.22656 32.1416V33.4727C0.996735 33.4727 0 34.4694 0 35.6992V36.8867C0 37.5013 0.498657 38 1.11328 38Z" fill="white"/>
<path d="M13.9334 24.5177C14.6733 25.4996 16.0695 25.6959 17.0515 24.9558C18.0337 24.2159 18.2297 22.8196 17.4898 21.8374L10.7899 12.9465C10.0497 11.9643 8.65374 11.7683 7.67179 12.5082C6.68956 13.2483 6.49328 14.6443 7.23344 15.6265L13.9334 24.5177Z" fill="white"/>
<path d="M29.9371 12.4577C30.6773 13.4397 32.0732 13.636 33.0555 12.8958C34.0374 12.1559 34.2337 10.76 33.4935 9.77774L26.7935 0.886851C26.0537 -0.0953876 24.6574 -0.291661 23.6755 0.448497C22.6935 1.18865 22.4973 2.58461 23.2374 3.56684L29.9371 12.4577Z" fill="white"/>
<path d="M25.0535 18.9258C26.699 17.6858 27.9344 16.1461 28.707 14.5248L20.9111 4.17944C19.1397 4.47545 17.3194 5.23822 15.6735 6.47849C14.0279 7.71846 12.7926 9.25821 12.02 10.8791L19.8158 21.2251C21.5872 20.9291 23.4076 20.166 25.0535 18.9258Z" fill="white"/>
<path d="M28.0596 19.2157C27.5412 19.7439 26.9953 20.2504 26.3934 20.7041C25.7913 21.1576 25.1538 21.5429 24.5035 21.8957L25.9551 23.8222L29.5115 21.1425L28.0596 19.2157Z" fill="white"/>
<path d="M30.8515 22.9205L27.2951 25.6002L33.9951 34.4914C34.7353 35.4737 36.1312 35.6696 37.1132 34.9298C38.0954 34.1896 38.2914 32.7937 37.5515 31.8114L30.8515 22.9205Z" fill="white"/>
</g>
<defs>
<clipPath id="clip0">
<rect width="38" height="38" fill="white"/>
</clipPath>
</defs>
</svg>
