<svg width="38" height="38" viewBox="0 0 38 38" fill="none" xmlns="http://www.w3.org/2000/svg">
<g clip-path="url(#clip0)">
<path d="M25.0788 26.6313L26.8164 23.8116L29.9523 22.7421L30.2997 19.4485L32.6591 17.1258L31.5373 14.0082L32.6591 10.8905L30.2998 8.56781L29.9524 5.27428L26.8165 4.20479L25.0788 1.385L21.792 1.78184L19 0L16.208 1.78199L12.9213 1.38514L11.1836 4.20486L8.0477 5.27436L7.70028 8.56789L5.34094 10.8906L6.46268 14.0083L5.34094 17.126L7.70021 19.4486L8.04763 22.7422L11.1835 23.8117L12.9212 26.6314L16.208 26.2346L19 28.0165L21.792 26.2346L25.0788 26.6313ZM9.39395 14.0083C9.39395 8.7115 13.7032 4.40221 19 4.40221C24.2968 4.40221 28.6061 8.7115 28.6061 14.0083C28.6061 19.305 24.2968 23.6143 19 23.6143C13.7032 23.6143 9.39395 19.305 9.39395 14.0083Z" fill="white"/>
<path d="M19 6.63019C14.9317 6.63019 11.6219 9.93997 11.6219 14.0083C11.6219 18.0766 14.9317 21.3864 19 21.3864C23.0683 21.3864 26.3781 18.0766 26.3781 14.0083C26.3781 9.93997 23.0683 6.63019 19 6.63019Z" fill="white"/>
<path d="M15.6824 28.5421L11.7725 29.0142L9.70681 25.6619L9.00455 25.4225L5.97546 34.8903L11.4287 34.5904L15.6952 38L18.2058 30.1527L15.6824 28.5421Z" fill="white"/>
<path d="M28.2933 25.662L26.2275 29.0142L22.3177 28.5421L19.7943 30.1527L22.305 38L26.5714 34.5904L32.0247 34.8903L28.9956 25.4225L28.2933 25.662Z" fill="white"/>
</g>
<defs>
<clipPath id="clip0">
<rect width="38" height="38" fill="white"/>
</clipPath>
</defs>
</svg>
