<svg width="38" height="38" viewBox="0 0 38 38" fill="none" xmlns="http://www.w3.org/2000/svg">
<path d="M20.1875 0C17.7315 0 15.7344 1.99715 15.7344 4.45312C15.7344 6.9091 17.7315 8.90625 20.1875 8.90625C22.6435 8.90625 24.6406 6.9091 24.6406 4.45312C24.6406 1.99715 22.6435 0 20.1875 0Z" fill="white"/>
<path d="M35.7734 16.8477V17.9609C35.7734 19.3381 34.566 20.4212 33.0521 20.1098C31.5682 15.0168 26.8664 11.2812 21.3008 11.2812H13.8627C13.5529 11.2812 13.2615 11.1519 13.0636 10.9269C12.0124 9.73743 10.4979 9.05469 8.90625 9.05469H5.56641C4.84463 9.05469 4.315 9.72956 4.48467 10.4311L5.61205 15.0744C4.788 15.9355 4.10088 16.9031 3.56161 17.9609C1.33208 17.9609 0 19.5505 0 21.3008V24.6004C0 26.7141 1.63638 27.4857 3.3768 28.7154C4.06607 30.1886 5.02825 31.4921 6.24157 32.5955C6.40575 32.7434 6.67969 33.0554 6.67969 33.4761V36.1017C6.67969 37.1487 7.53098 38 8.57791 38H12.5744C13.6154 38 14.4727 37.2957 14.4727 35.7734H21.3008C21.3008 37.2957 22.1581 38 23.199 38H27.1955C28.2425 38 29.0938 37.1487 29.0938 36.1018C29.0938 34.4193 28.9032 33.273 30.0777 32.0683C32.2313 29.854 33.5469 26.8342 33.5469 23.5273C33.5469 23.1498 33.5238 22.7777 33.4902 22.4088C33.5111 22.4091 33.5324 22.4152 33.5533 22.4152C35.9927 22.4152 38 20.431 38 17.9609V16.8477C38 15.3801 35.7734 15.3741 35.7734 16.8477ZM7.79297 21.3008C7.17814 21.3008 6.67969 20.8023 6.67969 20.1875C6.67969 19.5725 7.17814 19.0742 7.79297 19.0742C8.4078 19.0742 8.90625 19.5725 8.90625 20.1875C8.90625 20.8023 8.4078 21.3008 7.79297 21.3008ZM21.3008 17.9609H16.2377C14.7702 17.9609 14.7642 15.7344 16.2377 15.7344H21.3008C22.7683 15.7344 22.7743 17.9609 21.3008 17.9609Z" fill="white"/>
</svg>
