<svg width="38" height="38" viewBox="0 0 38 38" fill="none" xmlns="http://www.w3.org/2000/svg">
<path d="M32.3594 4.52734C29.9034 4.52734 27.9062 6.5245 27.9062 8.98047C27.9062 11.4364 29.9034 13.4336 32.3594 13.4336C34.8153 13.4336 36.8125 11.4364 36.8125 8.98047C36.8125 6.5245 34.8153 4.52734 32.3594 4.52734Z" fill="white"/>
<path d="M10.0938 29.0195H1.1875C0.572152 29.0195 0 29.5175 0 30.1328V36.8867C0 37.5021 0.572152 38 1.1875 38H10.0938C10.7091 38 11.207 37.5021 11.207 36.8867V30.1328C11.207 29.5175 10.7091 29.0195 10.0938 29.0195Z" fill="white"/>
<path d="M23.4531 20.1133H14.5469C13.9315 20.1133 13.4336 20.6112 13.4336 21.2266V36.8867C13.4336 37.5021 13.9315 38 14.5469 38H23.4531C24.0685 38 24.5664 37.5021 24.5664 36.8867V21.2266C24.5664 20.6112 24.0685 20.1133 23.4531 20.1133Z" fill="white"/>
<path d="M36.8867 24.5664H27.9062C27.2909 24.5664 26.793 25.0643 26.793 25.6797V36.8867C26.793 37.5021 27.2909 38 27.9062 38H36.8867C37.5021 38 38 37.5021 38 36.8867V25.6797C38 25.0643 37.5021 24.5664 36.8867 24.5664Z" fill="white"/>
<path d="M32.3594 13.4336C29.2902 13.4336 26.793 15.9308 26.793 19V21.2266C26.793 21.8419 27.2909 22.3398 27.9062 22.3398H36.8867C37.5021 22.3398 38 21.8419 38 21.2266V19C38 15.9308 35.4285 13.4336 32.3594 13.4336Z" fill="white"/>
<path d="M19 0C16.544 0 14.5469 2.07137 14.5469 4.52734C14.5469 6.98332 16.544 8.98047 19 8.98047C21.456 8.98047 23.4531 6.98332 23.4531 4.52734C23.4531 2.07137 21.456 0 19 0Z" fill="white"/>
<path d="M19 8.98047C15.9308 8.98047 13.4336 11.4777 13.4336 14.5469V16.7734C13.4336 17.3888 13.9315 17.8867 14.5469 17.8867H23.4531C24.0685 17.8867 24.5664 17.3888 24.5664 16.7734V14.5469C24.5664 11.4777 22.0692 8.98047 19 8.98047Z" fill="white"/>
<path d="M5.64062 8.98047C3.18465 8.98047 1.1875 10.9776 1.1875 13.4336C1.1875 15.8896 3.18465 17.8867 5.64062 17.8867C8.0966 17.8867 10.0938 15.8896 10.0938 13.4336C10.0938 10.9776 8.0966 8.98047 5.64062 8.98047Z" fill="white"/>
<path d="M5.64062 17.8867C2.57146 17.8867 0 20.384 0 23.4531V25.6797C0 26.295 0.572152 26.793 1.1875 26.793H10.0938C10.7091 26.793 11.207 26.295 11.207 25.6797V23.4531C11.207 20.384 8.70979 17.8867 5.64062 17.8867Z" fill="white"/>
</svg>
