<svg width="38" height="38" viewBox="0 0 38 38" fill="none" xmlns="http://www.w3.org/2000/svg">
<g clip-path="url(#clip0)">
<path d="M17.8801 7.5795V25.0007H20.1199V7.5795C19.7636 7.68066 19.3882 7.73598 19 7.73598C18.6118 7.73598 18.2364 7.68066 17.8801 7.5795Z" fill="white"/>
<path d="M29.3276 2.51001H22.9497C23.0509 2.86628 23.1062 3.24166 23.1062 3.62988C23.1062 4.0181 23.0509 4.39348 22.9497 4.74975H28.5797L29.3071 2.5675C29.3136 2.54809 29.3208 2.52912 29.3276 2.51001Z" fill="white"/>
<path d="M15.0504 2.51001H8.67249C8.67928 2.52912 8.68645 2.54809 8.69287 2.56742L9.42033 4.74975H15.0504C14.9493 4.39348 14.8939 4.0181 14.8939 3.62988C14.8939 3.24166 14.9493 2.86628 15.0504 2.51001Z" fill="white"/>
<path d="M29.55 16.0044L32.4943 7.1712L35.4387 16.0044H37.7996L33.5568 3.2757C33.4044 2.81842 32.9764 2.51001 32.4944 2.51001C32.0124 2.51001 31.5845 2.81842 31.432 3.2757L27.1891 16.0044H29.55Z" fill="white"/>
<path d="M5.50565 2.51001C5.02366 2.51001 4.59572 2.81842 4.44327 3.2757L0.200317 16.0044H2.56122L5.50565 7.1712L8.45 16.0044H10.8109L6.56803 3.2757C6.41558 2.81842 5.98764 2.51001 5.50565 2.51001Z" fill="white"/>
<path d="M5.51818 31.7385C4.80774 32.6794 4.38562 33.8496 4.38562 35.1168C4.38562 35.7353 4.88702 36.2367 5.50549 36.2367H32.4943C33.1127 36.2367 33.6141 35.7353 33.6141 35.1168C33.6141 33.8496 33.192 32.6794 32.4816 31.7385H5.51818Z" fill="white"/>
<path d="M10.3825 27.2404L9.0249 29.4988H28.6888L27.5609 27.2404H10.3825Z" fill="white"/>
<path d="M19.0001 5.49632C20.0309 5.49632 20.8666 4.66068 20.8666 3.62987C20.8666 2.59906 20.0309 1.76343 19.0001 1.76343C17.9693 1.76343 17.1337 2.59906 17.1337 3.62987C17.1337 4.66068 17.9693 5.49632 19.0001 5.49632Z" fill="white"/>
<path d="M0 18.2441C0.520514 20.8072 2.79123 22.7423 5.50564 22.7423C8.22005 22.7423 10.4907 20.8072 11.0113 18.2441H0Z" fill="white"/>
<path d="M26.9888 18.2441C27.5093 20.8072 29.78 22.7423 32.4944 22.7423C35.2088 22.7423 37.4795 20.8072 38 18.2441H26.9888Z" fill="white"/>
</g>
<defs>
<clipPath id="clip0">
<rect width="38" height="38" fill="white"/>
</clipPath>
</defs>
</svg>
