<svg width="38" height="38" viewBox="0 0 38 38" fill="none" xmlns="http://www.w3.org/2000/svg">
<path d="M32.5041 5.38623L20.1608 0.231111C19.4231 -0.0769582 18.5769 -0.0770342 17.8393 0.231111L5.49589 5.38623C4.61169 5.75551 4.04445 6.61333 4.05083 7.57161L4.14605 21.8562C4.17456 26.1459 6.34587 30.092 9.95418 32.4121C19.0405 38.2542 18.4914 37.9983 19 37.9983C19.5083 37.9983 18.9595 38.2542 28.0458 32.4121C28.0458 32.3795 33.8051 29.1724 33.854 21.8562L33.9492 7.57176C33.9557 6.61348 33.3885 5.75567 32.5041 5.38623ZM29.3531 21.2954C29.3329 24.3061 27.8093 27.0751 25.2774 28.703C19.2584 32.573 19.5042 32.5094 19 32.5094C18.492 32.5094 18.7332 32.5676 12.7225 28.703C10.1906 27.0751 8.667 24.3061 8.647 21.2961L8.5832 10.9649C8.57787 10.16 9.05477 9.43873 9.79806 9.12822L18.0676 5.67445C18.6602 5.42706 19.3398 5.42706 19.9323 5.67445L28.2019 9.12822C28.9454 9.4388 29.4224 10.16 29.417 10.9657L29.3531 21.2954Z" fill="white"/>
<path d="M11.0186 11.2557L11.0805 21.2804C11.095 23.4646 12.2009 25.4744 14.0387 26.6561L19 29.8459L23.9613 26.6561C23.9613 26.6394 26.8948 25.006 26.9196 21.2797L26.9815 11.2557L19 7.92218L11.0186 11.2557Z" fill="white"/>
</svg>
