<svg width="38" height="38" viewBox="0 0 38 38" fill="none" xmlns="http://www.w3.org/2000/svg">
    <g clip-path="url(#clip0)">
        <path d="M5.01068 6.79063C5.12943 6.82042 5.2381 6.88201 5.32471 6.96854L15.0001 16.6441L16.7509 14.8935L7.07529 5.21795C6.98851 5.13125 6.92718 5.02223 6.89721 4.90314L6.28826 2.47567L2.25145 0.167816L0.274658 2.14452L2.5832 6.18411L5.01068 6.79063Z" fill="#FE1919"/>
        <path d="M13.6144 28.8608L28.9677 13.5073C29.1359 13.3389 29.3799 13.2714 29.6106 13.3288C31.6321 13.8469 33.7792 13.398 35.4244 12.1144C37.0699 10.8307 38.027 8.85672 38.016 6.77004C38.016 6.64295 38.0123 6.51491 38.004 6.38573L34.433 9.95631C34.252 10.1374 33.9837 10.2009 33.7405 10.1198L29.6789 8.76577C29.4767 8.6988 29.3181 8.54017 29.2506 8.33812L27.8969 4.27646C27.8156 4.03358 27.879 3.76515 28.0604 3.58386L31.6313 0.0130172C29.4809 -0.120761 27.3962 0.782677 26.0227 2.44257C24.6494 4.10281 24.1531 6.31989 24.6872 8.40692C24.7451 8.63799 24.6777 8.88192 24.5093 9.05018L9.15626 24.4027C8.98782 24.5698 8.74406 24.6375 8.51316 24.581C7.97866 24.4437 7.42895 24.3726 6.87681 24.3704C3.9614 24.3512 1.35645 26.1891 0.396551 28.9426C-0.562831 31.6958 0.335656 34.7547 2.63178 36.5517C4.9279 38.3487 8.11304 38.4861 10.5551 36.8929C12.9973 35.2998 14.1553 32.3296 13.4356 29.5038C13.3784 29.2731 13.446 29.0288 13.6144 28.8608ZM8.52454 33.8477H5.2296L3.60454 31.14L5.2296 28.432H8.52454L10.1493 31.14L8.52454 33.8477ZM11.137 25.9227L26.0295 11.03L26.9866 11.9872L12.0941 26.8799L11.137 25.9227Z" fill="#FE1919"/>
        <path d="M32.4654 37.6468C33.9732 38.2137 35.6731 37.846 36.8122 36.707C37.9514 35.5676 38.3192 33.8674 37.752 32.36L32.4654 37.6468Z" fill="#FE1919"/>
        <path d="M36.8123 30.8937L29.2093 23.2876C28.3706 23.9925 27.1322 23.9389 26.3571 23.1648C25.5819 22.3908 25.5272 21.1527 26.2309 20.3132L25.1542 19.2352L19.342 25.0476L20.4253 26.1307C21.2639 25.4258 22.5025 25.4792 23.2772 26.2531C24.0524 27.0273 24.1073 28.2655 23.4035 29.1051L31.0002 36.7057C31.083 36.7886 31.1705 36.8654 31.2589 36.9401L37.0469 31.1521C36.9723 31.0636 36.8952 30.9764 36.8123 30.8937ZM32.7988 33.6491L26.0295 26.8799L26.9865 25.9227L33.756 32.6923L32.7988 33.6491Z" fill="#FE1919"/>
    </g>
    <defs>
        <clipPath id="clip0">
            <rect width="38" height="38" fill="white"/>
        </clipPath> 
    </defs>
</svg>
